# xmcd CD database file
#
# Track frame offsets:
#	150
#	13209
#	26296
#	42295
#	53180
#
# Disc length: 936 seconds
#
# Revision: 0
# Processed by: cddbd v1.5.2PL0 Copyright (c) Steve Scherf et al.
# Submitted via: CDex 1.70beta2
#
DISCID=3603a605
DTITLE=The Angry Tradesmen - Beat The House
DYEAR=2007
DGENRE=Blues
TTITLE0=Indecision is Final
TTITLE1=Drug You're On
TTITLE2=Big Wave
TTITLE3=Long Grass People
TTITLE4=Yeah Right
EXTD=YEAR: 2007
EXTT0=
EXTT1=
EXTT2=
EXTT3=
EXTT4=
PLAYORDER=
